HIERARCHY
ROOT Hips
{
  OFFSET 51.5799 95.8538 1.15347
  CHANNELS 6 Xposition Yposition Zposition Zrotation Xrotation Yrotation
  JOINT spine
  {
    OFFSET 0 7.96568 0.458067
    CHANNELS 3 Zrotation Xrotation Yrotation
    JOINT spine1
    {
      OFFSET 0 10.2431 0
      CHANNELS 3 Zrotation Xrotation Yrotation
      JOINT spine2
      {
        OFFSET 0 9.81475 0
        CHANNELS 3 Zrotation Xrotation Yrotation
        JOINT Neck
        {
          OFFSET 0 25.1986 1.20138
          CHANNELS 3 Zrotation Xrotation Yrotation
          JOINT Head
          {
            OFFSET 0 7.61315 0
            CHANNELS 3 Zrotation Xrotation Yrotation
            End Site
            {
              OFFSET 0 18.4281 -6.07733
            }
          }
        }
        JOINT RightShoulder
        {
          OFFSET -4.1327 10.5992 -0.575451
          CHANNELS 3 Zrotation Xrotation Yrotation
          JOINT RightArm
          {
            OFFSET 0 13.9018 0
            CHANNELS 3 Zrotation Xrotation Yrotation
            JOINT RightArmRoll
            {
              OFFSET 0 7.01788 0
              CHANNELS 3 Zrotation Xrotation Yrotation
              JOINT RightForeArm
              {
                OFFSET 0 20.4406 0
                CHANNELS 3 Zrotation Xrotation Yrotation
                JOINT RightForeArmRoll
                {
                  OFFSET 0 7.87515 0
                  CHANNELS 3 Zrotation Xrotation Yrotation
                  JOINT RightHand
                  {
                    OFFSET 0 15.8037 0
                    CHANNELS 3 Zrotation Xrotation Yrotation
                    End Site
                    {
                      OFFSET 0 0 0
                    }
                  }
                }
              }
            }
          }
        }
        JOINT LeftShoulder
        {
          OFFSET 4.1327 10.5992 -0.575451
          CHANNELS 3 Zrotation Xrotation Yrotation
          JOINT LeftArm
          {
            OFFSET 0 13.9018 0
            CHANNELS 3 Zrotation Xrotation Yrotation
            JOINT LeftArmRoll
            {
              OFFSET 0 7.01789 0
              CHANNELS 3 Zrotation Xrotation Yrotation
              JOINT LeftForeArm
              {
                OFFSET 0 20.4406 0
                CHANNELS 3 Zrotation Xrotation Yrotation
                JOINT LeftForeArmRoll
                {
                  OFFSET 0 7.87515 0
                  CHANNELS 3 Zrotation Xrotation Yrotation
                  JOINT LeftHand
                  {
                    OFFSET 0 15.8037 0
                    CHANNELS 3 Zrotation Xrotation Yrotation
                    End Site
                    {
                      OFFSET 0 0 0
                    }
                  }
                }
              }
            }
          }
        }
      }
    }
  }
  JOINT RightUpLeg
  {
    OFFSET -7.06048 -1.2947 -1.0861
    CHANNELS 3 Zrotation Xrotation Yrotation
    JOINT RightUpLegRoll
    {
      OFFSET 0 18.5308 0
      CHANNELS 3 Zrotation Xrotation Yrotation
      JOINT RightLeg
      {
        OFFSET 0 -22.9476 0
        CHANNELS 3 Zrotation Xrotation Yrotation
        JOINT RightLegRoll
        {
          OFFSET 0 23.0226 0
          CHANNELS 3 Zrotation Xrotation Yrotation
          JOINT RightFoot
          {
            OFFSET 0 19.1625 0
            CHANNELS 3 Zrotation Xrotation Yrotation
            JOINT RightToeBase
            {
              OFFSET 0 16.0188 0
              CHANNELS 3 Zrotation Xrotation Yrotation
              End Site
              {
                OFFSET 0.00678979 7.75781 -0.894207
              }
            }
          }
        }
      }
    }
  }
  JOINT LeftUpLeg
  {
    OFFSET 7.06048 -1.2947 -1.0861
    CHANNELS 3 Zrotation Xrotation Yrotation
    JOINT LeftUpLegRoll
    {
      OFFSET 0 18.5309 0
      CHANNELS 3 Zrotation Xrotation Yrotation
      JOINT LeftLeg
      {
        OFFSET 0 22.9475 0
        CHANNELS 3 Zrotation Xrotation Yrotation
        JOINT LeftLegRoll
        {
          OFFSET 0 23.2355 0
          CHANNELS 3 Zrotation Xrotation Yrotation
          JOINT LeftFoot
          {
            OFFSET 0 18.9496 0
            CHANNELS 3 Zrotation Xrotation Yrotation
            JOINT LeftToeBase
            {
              OFFSET 0 16.0188 0
              CHANNELS 3 Zrotation Xrotation Yrotation
              End Site
              {
                OFFSET -0.0304289 7.75781 -0.894207
              }
            }
          }
        }
      }
    }
  }
}
MOTION
Frames: 10
Frame Time: 0.00208333
53.2803 95.6844 2.99622 -0.196561 -0.16716 0.174202 0.00183844 -2.48336 -0.0385531 0.00237865 -0.963909 -0.0772868 0.00330438 0.681168 -0.0773214 0.418687 21.9843 -0.317599 -0.230157 -0.1153 -0.232196 34.6811 -10.1733 -6.27464 50.6197 26.9405 47.8483 7.95139e-15 -1.74931e-14 1.27222e-14 -4.64761 0.611871 0.783709 1.30594e-06 -3.98305e-06 -3.00118 8.03026 -4.95135 0.697611 -38.9387 -9.41222 5.61356 -46.204 30.7876 -51.0019 -4.14347e-06 -1.55802e-06 -1.52683e-06 6.06669 -0.0411858 -0.696846 3.17364e-06 -1.92141e-06 3.04469 -8.03033 -4.95136 -0.697608 177.021 1.16103 -2.8504 180 7.01546e-15 178.919 177.554 6.21479 179.589 -1.98545e-06 3.13878e-06 0.0833838 -19.2221 68.5294 20.0073 8.13588 25.2327 -3.48748 -176.712 1.11209 1.89224 4.5067e-06 -1.99009e-05 -1.08406 -2.35527 -5.88578 0.0589087 1.72578e-06 -4.48478e-06 -0.07686 19.0427 68.3334 -19.8219 -8.13649 25.2327 3.48773 
53.2587 95.6896 3.03011 -0.199451 -0.164042 0.173707 0.00228273 -2.48417 -0.038319 0.00327297 -0.96607 -0.0768571 0.00419352 0.679007 -0.0769073 0.402944 21.9952 -0.315003 -0.204482 -0.125847 -0.233056 34.6825 -10.1728 -6.27471 50.6187 26.9389 47.8489 -5.29669e-31 9.54166e-15 3.18055e-15 -4.64778 0.609675 0.783531 1.30594e-06 -3.98305e-06 -3.00118 8.03026 -4.95135 0.697611 -38.9366 -9.4096 5.61212 -46.2053 30.7883 -51.0022 -4.14347e-06 -1.55802e-06 -1.52683e-06 6.06783 -0.0411887 -0.696991 3.17364e-06 -1.92141e-06 3.04467 -8.03033 -4.95136 -0.697608 177.025 1.1549 -2.85521 180 7.01546e-15 178.919 177.557 6.19996 179.589 -1.98545e-06 3.13878e-06 0.0831766 -19.2162 68.5229 20.001 8.13588 25.2327 -3.48748 -176.708 1.11515 1.8895 4.5067e-06 -1.99009e-05 -1.08406 -2.35591 -5.88743 0.0586998 1.72578e-06 -4.48478e-06 -0.0768161 19.0435 68.3344 -19.8229 -8.13649 25.2327 3.48773 
53.2626 95.688 3.02253 -0.202167 -0.161971 0.173369 0.00260817 -2.48475 -0.0380215 0.00393229 -0.967656 -0.0762901 0.00484603 0.677421 -0.0763523 0.3937 22.0043 -0.314176 -0.187314 -0.1342 -0.234361 34.6847 -10.1732 -6.27557 50.617 26.9382 47.8497 -3.18055e-15 1.74931e-14 1.90833e-14 -4.64795 0.607146 0.783322 1.30594e-06 -3.98305e-06 -3.00118 8.03026 -4.95135 0.697611 -38.9332 -9.40681 5.61034 -46.2086 30.7893 -51.0024 -4.14347e-06 -1.55802e-06 -1.52683e-06 6.06983 -0.0411915 -0.697365 3.17364e-06 -1.92141e-06 3.04465 -8.03033 -4.95136 -0.697608 177.028 1.14484 -2.86057 180 7.01546e-15 178.919 177.562 6.18054 179.589 -1.98545e-06 3.13878e-06 0.0830019 -19.2085 68.5141 19.9927 8.13588 25.2327 -3.48748 -176.704 1.11702 1.88668 4.5067e-06 -1.99009e-05 -1.08406 -2.35665 -5.88927 0.0584874 1.72578e-06 -4.48478e-06 -0.0768327 19.0447 68.3357 -19.8241 -8.13649 25.2327 3.48773 
53.2591 95.6879 3.02004 -0.204701 -0.16083 0.173171 0.00282493 -2.48515 -0.0376717 0.00437651 -0.968729 -0.075609 0.00528209 0.676348 -0.0756798 0.390223 22.0116 -0.314908 -0.177735 -0.140562 -0.236046 34.6877 -10.1746 -6.27713 50.6147 26.9382 47.8508 6.36111e-15 0 -3.18055e-15 -4.64811 0.604358 0.78309 1.30594e-06 -3.98305e-06 -3.00118 8.03026 -4.95135 0.697611 -38.9285 -9.40389 5.60827 -46.2135 30.7904 -51.0024 -4.14347e-06 -1.55802e-06 -1.52683e-06 6.07259 -0.0411943 -0.69794 3.17364e-06 -1.92141e-06 3.04462 -8.03033 -4.95136 -0.697608 177.032 1.13142 -2.86635 180 7.01546e-15 178.919 177.568 6.15728 179.588 -1.98545e-06 3.13878e-06 0.0828563 -19.199 68.5035 19.9826 8.13588 25.2327 -3.48748 -176.7 1.11782 1.88381 4.5067e-06 -1.99009e-05 -1.08406 -2.35746 -5.89123 0.0582724 1.72578e-06 -4.48478e-06 -0.0769016 19.046 68.3372 -19.8255 -8.13649 25.2327 3.48773 
53.257 95.6885 3.02605 -0.207047 -0.160502 0.173096 0.00294318 -2.48538 -0.0372808 0.00462556 -0.96935 -0.074837 0.0055219 0.675727 -0.0749133 0.391784 22.0172 -0.316986 -0.174826 -0.145133 -0.238048 34.6913 -10.1767 -6.2793 50.612 26.9388 47.852 -7.95139e-15 3.18055e-15 6.36111e-15 -4.64826 0.601385 0.782842 1.30594e-06 -3.98305e-06 -3.00118 8.03026 -4.95135 0.697611 -38.9228 -9.4009 5.60597 -46.2199 30.7917 -51.0024 -4.14347e-06 -1.55802e-06 -1.52683e-06 6.07602 -0.0411971 -0.698688 3.17364e-06 -1.92141e-06 3.0446 -8.03033 -4.95136 -0.697608 177.035 1.11521 -2.87244 180 7.01546e-15 178.919 177.575 6.1309 179.588 -1.98545e-06 3.13878e-06 0.0827364 -19.1883 68.4914 19.971 8.13588 25.2327 -3.48748 -176.697 1.11767 1.88093 4.5067e-06 -1.99009e-05 -1.08405 -2.35832 -5.89329 0.0580555 1.72578e-06 -4.48478e-06 -0.0770146 19.0475 68.339 -19.8272 -8.13649 25.2327 3.48773 
53.2517 95.6935 3.03642 -0.209199 -0.16087 0.173126 0.00297308 -2.48546 -0.03686 0.00469934 -0.969583 -0.0739973 0.00558564 0.675493 -0.0740763 0.397649 22.0215 -0.3202 -0.177668 -0.148118 -0.2403 34.6953 -10.1795 -6.28201 50.609 26.9401 47.8534 -3.18055e-15 1.74931e-14 9.54166e-15 -4.64839 0.598302 0.782584 1.30594e-06 -3.98305e-06 -3.00118 8.03026 -4.95135 0.697611 -38.9162 -9.39787 5.60351 -46.2274 30.7932 -51.0022 -4.14347e-06 -1.55802e-06 -1.52683e-06 6.08 -0.0411998 -0.699581 3.17364e-06 -1.92141e-06 3.04458 -8.03033 -4.95136 -0.697608 177.038 1.09678 -2.87872 180 7.01546e-15 178.919 177.582 6.10214 179.587 -1.98545e-06 3.13878e-06 0.082639 -19.1766 68.4781 19.9584 8.13588 25.2327 -3.48748 -176.693 1.1167 1.87808 4.5067e-06 -1.99009e-05 -1.08405 -2.35922 -5.89539 0.0578375 1.72578e-06 -4.48478e-06 -0.0771635 19.0492 68.3409 -19.8289 -8.13649 25.2327 3.48773 
53.2514 95.6923 3.03846 -0.211151 -0.161815 0.173244 0.00292482 -2.48542 -0.0364204 0.00461777 -0.969489 -0.073113 0.0054935 0.675587 -0.0731923 0.407088 22.0245 -0.324337 -0.185342 -0.149717 -0.24274 34.6997 -10.1829 -6.28517 50.6057 26.9418 47.8548 4.77083e-15 -9.54166e-15 1.27222e-14 -4.6485 0.595182 0.782326 1.30594e-06 -3.98305e-06 -3.00118 8.03026 -4.95135 0.697611 -38.9089 -9.39486 5.60094 -46.236 30.7948 -51.002 -4.14347e-06 -1.55802e-06 -1.52683e-06 6.08442 -0.0412024 -0.700592 3.17364e-06 -1.92141e-06 3.04455 -8.03033 -4.95136 -0.697608 177.041 1.07671 -2.88507 180 7.01546e-15 178.919 177.59 6.07176 179.587 -1.98545e-06 3.13878e-06 0.0825608 -19.1642 68.4641 19.9451 8.13588 25.2327 -3.48748 -176.69 1.11502 1.87529 4.5067e-06 -1.99009e-05 -1.08405 -2.36013 -5.89748 0.0576191 1.72578e-06 -4.48478e-06 -0.07734 19.051 68.343 -19.8309 -8.13649 25.2327 3.48773 
53.2721 95.6997 2.98007 -0.212895 -0.163221 0.173433 0.00280857 -2.48528 -0.035973 0.00440076 -0.96913 -0.0722073 0.00526566 0.675946 -0.0722847 0.419367 22.0263 -0.329186 -0.196929 -0.150132 -0.245302 34.7043 -10.1867 -6.28869 50.6024 26.9441 47.8563 -4.77083e-15 4.77083e-15 3.18055e-15 -4.64858 0.592099 0.782073 1.30594e-06 -3.98305e-06 -3.00118 8.03026 -4.95135 0.697611 -38.9011 -9.39191 5.59833 -46.2452 30.7965 -51.0017 -4.14347e-06 -1.55802e-06 -1.52683e-06 6.08918 -0.0412051 -0.701692 3.17364e-06 -1.92141e-06 3.04453 -8.03033 -4.95136 -0.697608 177.044 1.05556 -2.89138 180 7.01546e-15 178.919 177.598 6.04051 179.586 -1.98545e-06 3.13878e-06 0.0824984 -19.1515 68.4497 19.9315 8.13588 25.2327 -3.48748 -176.687 1.11276 1.8726 4.5067e-06 -1.99009e-05 -1.08404 -2.36104 -5.89953 0.0574011 1.72578e-06 -4.48478e-06 -0.077536 19.0528 68.3451 -19.8328 -8.13649 25.2327 3.48773 
53.2644 95.7003 2.99521 -0.214427 -0.16497 0.173675 0.00263449 -2.48506 -0.0355291 0.00406822 -0.968569 -0.0713035 0.00492233 0.676507 -0.071377 0.433756 22.0273 -0.334535 -0.21151 -0.149567 -0.247921 34.709 -10.1908 -6.29249 50.599 26.9467 47.8577 9.54166e-15 -1.43125e-14 3.18055e-15 -4.64862 0.589127 0.781833 1.30594e-06 -3.98305e-06 -3.00118 8.03026 -4.95135 0.697611 -38.8929 -9.38906 5.59573 -46.255 30.7983 -51.0014 -4.14347e-06 -1.55802e-06 -1.52683e-06 6.09417 -0.0412077 -0.702854 3.17364e-06 -1.92141e-06 3.0445 -8.03033 -4.95136 -0.697608 177.046 1.03391 -2.89752 180 7.01546e-15 178.919 177.606 6.00911 179.585 -1.98545e-06 3.13878e-06 0.0824485 -19.1388 68.4352 19.9178 8.13588 25.2327 -3.48748 -176.684 1.11004 1.87005 4.5067e-06 -1.99009e-05 -1.08404 -2.36193 -5.90149 0.0571843 1.72578e-06 -4.48478e-06 -0.0777433 19.0546 68.3472 -19.8348 -8.13649 25.2327 3.48773 
53.2576 95.6931 3.03782 -0.215738 -0.166946 0.173953 0.00241276 -2.4848 -0.0350998 0.00364008 -0.967867 -0.0704246 0.00448369 0.677209 -0.0704927 0.449522 22.0274 -0.340172 -0.228166 -0.148223 -0.250532 34.7136 -10.1952 -6.29649 50.5957 26.9497 47.859 -1.59028e-15 0 6.36111e-15 -4.64863 0.586341 0.781613 1.30594e-06 -3.98305e-06 -3.00118 8.03026 -4.95135 0.697611 -38.8846 -9.38636 5.59321 -46.265 30.8001 -51.0011 -4.14347e-06 -1.55802e-06 -1.52683e-06 6.09928 -0.0412103 -0.70405 3.17364e-06 -1.92141e-06 3.04448 -8.03033 -4.95136 -0.697608 177.048 1.01232 -2.90338 180 7.01546e-15 178.919 177.614 5.9783 179.585 -1.98545e-06 3.13878e-06 0.0824078 -19.1264 68.4211 19.9045 8.13588 25.2327 -3.48748 -176.681 1.10698 1.86768 4.5067e-06 -1.99009e-05 -1.08404 -2.36278 -5.90331 0.0569694 1.72578e-06 -4.48478e-06 -0.0779537 19.0565 68.3493 -19.8368 -8.13649 25.2327 3.48773 
